<?xml version="1.0" encoding="utf-8" ?>
<svg xmlns="http://www.w3.org/2000/svg" xmlns:xlink="http://www.w3.org/1999/xlink" width="1024" height="1023">
	<!-- <path fill="white" d="M0 0L1024 0L1024 1024L0 1024L0 0Z"/> -->
	<path fill="#FF2656" d="M257.759 462.273C264.044 468.241 270.273 474.309 276.748 480.071C281.217 484.047 286.809 487.985 290.557 492.586C290.685 492.859 290.807 493.135 290.94 493.406C291.574 494.694 292.604 495.591 293.637 496.556C293.104 497.094 293.207 497.213 292.538 497.258C290.96 497.364 286.263 495.544 285.095 494.395C284.949 494.407 284.803 494.422 284.657 494.431C277.599 494.879 271.668 489.577 265.23 495.651C262.282 484.637 260.085 473.431 257.759 462.273Z"/>
	<path fill="#514737" d="M521.468 842.67L540.624 842.743Q540.43 879.812 540.698 916.88C555.615 917.238 570.61 916.922 585.536 916.918L585.521 933.499L521.528 933.476Q521.749 888.073 521.468 842.67Z"/>
	<path fill="#514737" d="M346.512 842.547L418.38 842.643L418.254 858.99L390.986 859.071L390.937 906.25L390.993 933.253Q381.465 933.142 371.938 933.326Q372.395 896.157 372.186 858.985C363.629 858.841 355.056 858.936 346.497 858.92L346.512 842.547Z"/>
	<path fill="#FF2199" d="M514.396 700.857C518.221 703.96 521.742 708.599 525.251 712.196C533.261 720.405 541.47 728.583 550.053 736.194C543.998 743.965 537.046 751.228 530.661 758.751C524.788 765.671 518.421 774.754 511.659 780.57C497.809 768.271 485.55 755.823 474.559 740.874C488.047 727.775 501.012 714.078 514.396 700.857Z"/>
	<path fill="#FF2199" d="M511.971 79.3156C515.331 80.1356 548.096 114.294 552.436 118.644C544.494 126.683 529.349 143.263 520.434 148.689C518.094 150.113 515.75 150.867 513.143 151.601C510.612 151.554 508.145 151.017 505.895 149.828C496.172 144.692 480.236 126.436 472.107 118.176C477.383 112.583 483.135 107.364 488.616 101.963C496.329 94.3617 503.902 86.5418 511.971 79.3156Z"/>
	<path fill="#FF2656" d="M194.496 393.652C194.715 393.643 194.934 393.63 195.153 393.626C198.682 393.551 201.789 394.438 204.801 396.238C212.87 401.059 230.023 420.756 237.796 428.52C228.711 436.979 214.322 454.731 204.313 460.251C202.14 461.45 200.024 461.95 197.618 462.416C196.989 462.456 196.389 462.49 195.76 462.442C192.265 462.181 189.388 460.933 186.509 458.991C177.961 453.225 161.808 434.756 154.2 426.419C163.184 418.052 177.773 400.727 187.779 395.481C189.903 394.368 192.158 394.017 194.496 393.652Z"/>
	<path fill="#989DB2" d="M823.243 391.594C825.594 391.32 828.125 391.061 830.449 391.622C832.119 392.024 833.557 392.679 834.949 393.687C840.256 397.529 864.36 420.658 867.297 425.545C868.022 426.752 868.281 427.158 867.779 428.52C866.004 433.336 840.549 457.636 835.427 461.67C833.954 462.83 832.459 463.618 830.717 464.292C828.038 464.178 825.373 464.262 822.961 462.935C816.781 459.535 792.372 434.609 785.445 427.765Q796.517 417.301 807.285 406.525C812.026 401.804 817.482 394.99 823.243 391.594Z"/>
	<path fill="#514737" d="M598.408 842.586L664.986 842.58L664.871 859.133L617.913 859.015L617.895 878.733L657.495 878.619L657.492 895.51L618.135 895.511C616.644 897.967 617.707 913.048 617.762 917.012L665.347 917.047L665.341 933.505L598.409 933.454L598.408 842.586Z"/>
	<path fill="#514737" d="M199.595 842.929L211.983 842.936L256.416 933.463L236.188 933.366L227.228 914.498L212.75 914.467L184.302 914.473C181.707 920.917 178.578 927.119 175.529 933.356L155.376 933.294C160.835 920.449 167.576 907.999 173.787 895.496L199.595 842.929Z"/>
	<path fill="white" d="M205.748 868.38C207.844 870.547 217.012 893.272 218.596 897.581L206.25 897.567L192.635 897.527C196.597 887.722 201.528 878.119 205.748 868.38Z"/>
	<path fill="#FF1554" d="M416.479 485.016C445.037 492.498 482.444 497.57 511.909 497.183L511.918 548.949C507.585 549.098 502.894 548.46 498.563 548.121C481.888 546.816 465.763 544.4 449.505 540.449C442.918 538.848 436.469 536.532 429.84 535.157L429.284 535.046C423.64 519.053 419.788 501.625 416.479 485.016Z"/>
	<path fill="#514737" d="M680.011 842.675L691.967 842.603C698.33 849.278 704.21 856.534 710.245 863.515Q726.172 882.061 742.598 900.165C742.334 880.993 742.521 861.798 742.523 842.624L760.328 842.714L760.177 931.625L760.098 932.727C757.698 934.587 750.581 933.639 747.392 933.565C740.609 926.533 734.342 918.881 727.881 911.549C718.076 900.423 708.148 889.45 698.508 878.172L698.654 933.555L679.952 933.593L680.011 842.675Z"/>
	<path fill="#EA0047" d="M612.472 614.808C642.805 612.851 676.2 601.434 702.736 586.885C709.666 583.085 715.926 578.05 722.902 574.362L723.361 574.125C719.325 580.805 714.176 587.08 709.28 593.148Q707.775 595.004 706.233 596.83Q704.691 598.655 703.112 600.449Q701.533 602.243 699.917 604.004Q698.302 605.765 696.652 607.493Q695.001 609.221 693.316 610.916Q691.631 612.61 689.911 614.27Q688.192 615.929 686.439 617.554Q684.687 619.178 682.901 620.767Q681.116 622.355 679.299 623.907Q677.482 625.459 675.633 626.974Q673.785 628.488 671.906 629.965Q670.028 631.442 668.119 632.881Q666.211 634.319 664.274 635.718Q662.337 637.118 660.372 638.477Q658.406 639.837 656.414 641.157Q654.422 642.476 652.403 643.755Q650.384 645.034 648.34 646.272Q646.296 647.509 644.227 648.705Q642.158 649.901 640.065 651.054Q637.972 652.208 635.856 653.319Q633.74 654.43 631.603 655.497Q629.465 656.565 627.305 657.589Q625.146 658.613 622.967 659.593Q620.787 660.573 618.588 661.508Q616.389 662.444 614.172 663.334Q611.954 664.225 609.719 665.07Q607.484 665.916 605.232 666.716Q602.98 667.515 600.712 668.269Q598.445 669.023 596.162 669.731Q593.88 670.439 591.583 671.1Q589.287 671.761 586.978 672.376Q584.668 672.99 582.347 673.558C570.472 676.489 558.36 678.582 546.123 679.066C558.983 667.239 571.86 655.62 584.18 643.218L602.153 625.001C605.491 621.601 608.81 617.84 612.472 614.808Z"/>
	<path fill="#FF2656" d="M668.377 650.788L668.527 651.566C656.436 660.916 641.691 668.034 628.04 674.776C627.979 675.101 627.925 675.427 627.857 675.75C626.812 680.728 620.464 687.546 623.959 692.936C625.015 694.565 626.781 695.837 628.014 697.358C630.094 699.925 631.583 703.372 633.195 706.248C633.763 707.26 634.701 709.2 635.914 709.439C636.848 709.622 637.541 709.444 638.453 709.257C639.881 711.244 641.768 715.766 643.856 716.763C646.304 716.814 648.608 720 650.783 721.369C656.49 724.96 664.506 724.64 668.361 727.564C674.019 728.227 696.883 712.243 703.671 708.94C707.486 707.083 716.251 698.553 719.36 698.157L719.531 698.789C714.902 703.233 708.01 707.12 702.583 710.594C677.442 726.688 642.816 744.873 612.372 744.224C576.065 743.45 552.374 721.012 528.888 696.622C580.648 695.655 625.42 678.752 668.377 650.788Z"/>
	<path fill="#FF2199" d="M322.202 256.588C335.291 268.272 349.257 279.001 362.185 290.866C337.746 314.996 313.039 338.815 288.976 363.326C278.163 374.341 267.09 385.2 256.97 396.863C265.336 341.226 284.755 298.743 322.202 256.588Z"/>
	<defs>
		<linearGradient id="gradient_0" gradientUnits="userSpaceOnUse" x1="748.43439" y1="320.54837" x2="673.37506" y2="337.08685">
			<stop offset="0" stop-color="#8591AE"/>
			<stop offset="1" stop-color="#808EA3"/>
		</linearGradient>
	</defs>
	<path fill="url(#gradient_0)" d="M698.441 254.138C727.844 284.937 748.51 321.497 758.724 362.871C761.433 373.845 763.731 385.262 764.195 396.58C753.308 382.782 740.373 370.713 728.164 358.1L661.098 289.901C666.063 285.719 670.659 280.749 675.314 276.193Q686.695 264.974 698.441 254.138Z"/>
	<path fill="#514737" d="M265.479 842.786C278.285 842.754 300.657 841.395 312.645 844.038C320.802 845.836 328.446 850.131 332.897 857.407C337.534 864.988 338.634 875.207 336.347 883.735C333.948 892.675 328.306 898.418 320.455 902.871C326.818 913.172 334.132 923.114 340.93 933.151L331.193 933.171L319.641 933.309C314.551 924.556 308.859 916.089 303.522 907.477L284.093 907.495L284.006 933.426L265.659 933.397C266.037 903.213 265.483 872.977 265.479 842.786Z"/>
	<path fill="white" d="M284.156 858.623C293.138 858.486 306.304 856.895 313.664 862.953C316.737 865.482 318.217 869.1 318.601 872.994C319.162 878.68 317.525 882.956 313.989 887.329C305.405 893.159 294.002 891.576 284.086 891.496L284.156 858.623Z"/>
	<path fill="#738DA3" d="M549.648 179.384C557.45 180.852 565.222 181.889 572.961 183.761C621.365 195.465 662.923 219.315 698.441 254.138Q686.695 264.974 675.314 276.193C670.659 280.749 666.063 285.719 661.098 289.901L549.648 179.384Z"/>
	<path fill="#5B4D49" d="M429.284 535.046L429.84 535.157C436.469 536.532 442.918 538.848 449.505 540.449C465.763 544.4 481.888 546.816 498.563 548.121C502.894 548.46 507.585 549.098 511.918 548.949L511.941 627.258C511.944 640.825 511.349 654.741 512.162 668.264C475.213 644.237 442.808 576.196 429.284 535.046Z"/>
	<path fill="#989DB2" d="M322.202 256.588Q325.336 253.294 328.585 250.113Q331.833 246.932 335.192 243.868Q338.552 240.804 342.017 237.861Q345.483 234.918 349.05 232.1Q352.618 229.281 356.283 226.591Q359.948 223.9 363.706 221.341Q367.464 218.782 371.311 216.358Q375.157 213.934 379.087 211.647Q383.016 209.36 387.024 207.214Q391.033 205.068 395.114 203.065Q399.196 201.062 403.346 199.205Q407.496 197.348 411.709 195.639Q415.922 193.93 420.193 192.371Q424.464 190.812 428.788 189.405Q433.112 187.999 437.482 186.746Q441.853 185.493 446.265 184.396C458.231 181.328 470.383 179.753 482.408 177.098C455.088 202.552 428.299 228.577 401.234 254.303C388.345 266.555 375.593 279.185 362.185 290.866C349.257 279.001 335.291 268.272 322.202 256.588Z"/>
	<path fill="#514737" d="M431.016 842.78C445.243 842.916 475.872 841.115 487.889 845.177C493.922 847.216 499.414 850.879 502.196 856.799C504.475 861.649 504.735 868.208 502.759 873.207C500.105 879.921 493.711 882.868 487.481 885.437C488.991 885.779 490.512 886.117 491.995 886.565C498.025 888.387 503.94 892.648 506.894 898.259C510.013 904.184 509.735 910.211 507.723 916.378C506.384 919.174 504.833 921.51 502.66 923.737C491.374 935.305 472.637 933.392 457.92 933.326L430.995 933.316L431.016 842.78Z"/>
	<path fill="white" d="M449.729 859.56C457.698 859.477 477.163 857.582 482.98 862.367C484.767 863.837 485.511 865.671 485.662 867.941C485.914 871.716 484.778 873.736 482.316 876.485C474.169 881.446 459.312 879.566 449.718 879.494L449.729 859.56Z"/>
	<path fill="white" d="M452.331 895.265C460.534 895.119 469.407 894.372 477.532 895.389C481.36 895.869 485.43 897.147 487.79 900.418C489.518 902.812 490.145 906.182 489.61 909.07C489.068 911.995 487.079 913.675 484.769 915.309C476.209 918.932 459.1 917.422 449.555 917.429C449.503 910.363 449.081 903.05 449.663 896.018C450.502 895.195 451.2 895.372 452.331 895.265Z"/>
	<defs>
		<linearGradient id="gradient_1" gradientUnits="userSpaceOnUse" x1="634.42261" y1="632.66809" x2="775.35925" y2="470.36377">
			<stop offset="0" stop-color="#5B5253"/>
			<stop offset="1" stop-color="#FF085A"/>
		</linearGradient>
	</defs>
	<path fill="url(#gradient_1)" d="M764.678 459.596Q764.097 464.97 763.291 470.314Q762.486 475.659 761.457 480.965Q760.428 486.271 759.178 491.529Q757.928 496.788 756.458 501.989Q754.989 507.19 753.303 512.326Q751.617 517.461 749.717 522.521Q747.817 527.581 745.707 532.557Q743.597 537.533 741.28 542.416C739.869 545.422 737.685 551.485 735.339 553.595C733.236 558.295 726.746 570.648 723.361 574.125L722.902 574.362C715.926 578.05 709.666 583.085 702.736 586.885C676.2 601.434 642.805 612.851 612.472 614.808Q645.843 580.112 680.068 546.258C689.355 536.975 698.146 526.312 708.132 517.858C714.052 511.311 720.507 505.197 726.721 498.924C739.514 486.007 752.422 473.021 764.678 459.596Z"/>
	<path fill="#514737" d="M779.829 842.686L803.257 842.644C820.642 842.631 837.531 843.324 850.944 855.943C859.534 864.025 863.672 874.524 863.979 886.245C864.33 899.605 859.682 910.492 850.61 920.138C835.959 932.666 822.038 933.586 803.595 933.495L779.943 933.376L779.829 842.686Z"/>
	<path fill="white" d="M798.57 858.623C810.727 858.434 825.19 857.936 835.208 866.012C841.148 870.8 844.232 877.783 844.824 885.274C845.55 894.472 842.148 902.112 836.23 908.939C825.43 918.332 812.134 917.381 798.684 917.395L798.57 858.623Z"/>
	<defs>
		<linearGradient id="gradient_2" gradientUnits="userSpaceOnUse" x1="602.43878" y1="444.16965" x2="739.26764" y2="384.72855">
			<stop offset="0" stop-color="#FF124A"/>
			<stop offset="1" stop-color="#FF1167"/>
		</linearGradient>
	</defs>
	<path fill="url(#gradient_2)" d="M621.956 369.99Q629.882 371.434 637.732 373.249Q645.582 375.065 653.337 377.248Q661.093 379.431 668.736 381.977Q676.38 384.522 683.896 387.425Q691.412 390.329 698.782 393.582Q706.153 396.836 713.362 400.433Q720.571 404.031 727.603 407.964Q734.634 411.896 741.473 416.156C747.86 420.197 754.594 424.177 760.277 429.19C748.202 440.835 732.352 449.93 717.745 457.978Q712.099 461.027 706.346 463.866Q700.592 466.706 694.738 469.332Q688.883 471.958 682.937 474.367Q676.99 476.777 670.959 478.966Q664.927 481.155 658.82 483.121Q652.712 485.088 646.536 486.828Q640.361 488.569 634.125 490.081Q627.89 491.594 621.603 492.876C630.475 449.802 631.069 413.118 621.956 369.99Z"/>
	<path fill="#FF2199" d="M401.498 369.67C402.242 370.507 401.461 372.683 401.248 373.679C399.654 381.147 399.099 388.863 398.337 396.455C394.921 430.468 397.36 460.314 403.507 493.905C371.951 487.556 338.928 474.837 309.822 461.179C300.251 456.443 272.32 442.522 269.011 432.89C268.394 431.093 268.876 429.359 269.801 427.781C272.442 423.273 278.276 419.418 282.434 416.394C315.782 392.14 361.866 378.998 401.498 369.67Z"/>
	<path fill="#738DA3" d="M511.909 497.183C543.848 496.174 577.489 493.812 607.985 483.556C597.418 540.61 577.12 594.633 540.433 640.291C532.721 649.889 524.193 660.261 513.958 667.218C513.368 667.618 512.792 667.933 512.162 668.264C511.349 654.741 511.944 640.825 511.941 627.258L511.918 548.949L511.909 497.183Z"/>
	<defs>
		<linearGradient id="gradient_3" gradientUnits="userSpaceOnUse" x1="350.79697" y1="638.39441" x2="391.12305" y2="534.81104">
			<stop offset="0" stop-color="#43383D"/>
			<stop offset="1" stop-color="#FF2251"/>
		</linearGradient>
	</defs>
	<path fill="url(#gradient_3)" d="M265.23 495.651C271.668 489.577 277.599 494.879 284.657 494.431C284.803 494.422 284.949 494.407 285.095 494.395C286.263 495.544 290.96 497.364 292.538 497.258C293.207 497.213 293.104 497.094 293.637 496.556C292.604 495.591 291.574 494.694 290.94 493.406C290.807 493.135 290.685 492.859 290.557 492.586C301.81 501.608 312.249 511.718 322.832 521.51C356.134 552.321 387.69 585.2 418.782 618.229Q438.217 639.129 458.347 659.361C465.045 666.132 471.792 673.773 479.434 679.453Q476.464 679.172 473.502 678.819Q470.54 678.465 467.588 678.039Q464.635 677.613 461.694 677.115Q458.753 676.617 455.825 676.047Q452.897 675.477 449.983 674.835Q447.07 674.193 444.174 673.481Q441.277 672.768 438.399 671.984Q435.52 671.2 432.662 670.347Q429.804 669.493 426.967 668.569Q424.131 667.645 421.318 666.652Q418.505 665.659 415.717 664.598Q412.93 663.536 410.169 662.407Q407.408 661.277 404.675 660.081Q401.943 658.884 399.241 657.62Q396.538 656.357 393.868 655.028Q391.197 653.698 388.56 652.304Q385.923 650.91 383.321 649.451Q380.719 647.993 378.153 646.471Q375.587 644.949 373.06 643.365Q370.532 641.781 368.044 640.135Q365.556 638.489 363.109 636.783Q360.662 635.077 358.258 633.311Q355.853 631.546 353.493 629.722Q351.132 627.898 348.817 626.016Q346.502 624.135 344.234 622.198Q341.966 620.26 339.745 618.268Q337.525 616.275 335.355 614.229Q333.184 612.183 331.064 610.084Q328.944 607.985 326.877 605.835Q324.809 603.685 322.795 601.485Q320.78 599.285 318.82 597.036Q316.86 594.787 314.956 592.491Q312.789 589.836 310.692 587.125Q308.595 584.414 306.57 581.649Q304.546 578.883 302.594 576.066Q300.643 573.248 298.766 570.381Q296.889 567.513 295.088 564.597Q293.288 561.681 291.564 558.718Q289.841 555.756 288.196 552.749Q286.55 549.743 284.985 546.694Q283.419 543.645 281.935 540.556Q280.45 537.467 279.046 534.34Q277.643 531.214 276.323 528.051Q275.002 524.888 273.765 521.692Q272.528 518.496 271.375 515.268Q270.223 512.04 269.155 508.784Q268.088 505.527 267.106 502.243Q266.125 498.959 265.23 495.651Z"/>
	<path fill="#FF1554" d="M511.567 195.625L511.67 308.616C511.718 331.93 512.312 355.323 511.806 378.624C476.954 379.411 447.752 382.531 413.79 390.401C414.035 386.649 414.577 382.859 415.129 379.138C422.698 328.097 445.944 264.477 479.556 224.72C488.892 213.677 499.979 204.226 511.567 195.625Z"/>
	<path fill="#FF2199" d="M511.567 195.625C516.635 197.498 521.67 202.058 525.809 205.447C551.249 226.276 568.341 255.012 581.922 284.531C597.981 319.439 604.315 352.384 609.77 389.979C581.742 381.136 541.173 378.614 511.806 378.624C512.312 355.323 511.718 331.93 511.67 308.616L511.567 195.625Z"/>
	<path fill="#FF2199" d="M300.862 159.652C331.789 134.363 384.837 108.798 425.328 112.943C451.827 115.655 466.033 129.616 483.787 147.649C488.692 152.631 493.458 157.76 499.123 161.9Q495.426 162.039 491.733 162.276Q488.041 162.513 484.357 162.848Q480.672 163.183 476.997 163.616Q473.323 164.048 469.661 164.578Q465.999 165.109 462.353 165.736Q458.707 166.363 455.078 167.087Q451.45 167.81 447.842 168.63Q444.234 169.45 440.649 170.365Q437.064 171.281 433.505 172.291Q429.946 173.301 426.415 174.405Q422.883 175.51 419.383 176.707Q415.882 177.905 412.415 179.195Q408.947 180.486 405.515 181.867Q402.083 183.249 398.688 184.722Q395.294 186.194 391.94 187.756Q388.586 189.318 385.275 190.969C375.555 195.908 366.708 202.481 357.065 207.373C352.12 206.903 327.772 230.181 325.949 230.173C325.935 229.992 325.922 229.812 325.906 229.632C325.7 227.382 325.438 226.216 323.681 224.754C321.684 223.094 320.008 221.136 318.025 219.462C306.812 209.999 288.584 196.523 283.689 182.357C279.721 170.873 297.511 167.587 300.582 160.383C300.684 160.143 300.769 159.896 300.862 159.652Z"/>
	<defs>
		<linearGradient id="gradient_4" gradientUnits="userSpaceOnUse" x1="332.72119" y1="236.14955" x2="187.5585" y2="349.69608">
			<stop offset="0" stop-color="#877D86"/>
			<stop offset="1" stop-color="#031E52"/>
		</linearGradient>
	</defs>
	<path fill="url(#gradient_4)" d="M241.013 410.981C230.286 402.378 219.17 392.037 210.982 380.984C197.754 363.129 190.564 343.037 194.032 320.731C195.561 310.905 198.669 301.183 202.02 291.833C220.02 241.625 257.922 191.259 300.862 159.652C300.769 159.896 300.684 160.143 300.582 160.383C297.511 167.587 279.721 170.873 283.689 182.357C288.584 196.523 306.812 209.999 318.025 219.462C320.008 221.136 321.684 223.094 323.681 224.754C325.438 226.216 325.7 227.382 325.906 229.632C325.922 229.812 325.935 229.992 325.949 230.173C327.772 230.181 352.12 206.903 357.065 207.373C355.948 209.232 345.292 215.962 342.762 217.901Q328.285 228.97 315.482 241.939Q312.213 245.247 309.065 248.67Q305.916 252.093 302.893 255.627Q299.869 259.161 296.974 262.801Q294.079 266.441 291.316 270.182Q288.553 273.923 285.927 277.761Q283.3 281.599 280.812 285.529Q278.325 289.458 275.979 293.475Q273.634 297.491 271.435 301.589Q269.235 305.686 267.184 309.86Q265.133 314.034 263.232 318.279Q261.332 322.524 259.585 326.834Q257.838 331.144 256.246 335.515Q254.655 339.885 253.221 344.309Q251.788 348.733 250.514 353.206Q249.239 357.679 248.126 362.195Q247.013 366.71 246.063 371.263C243.251 384.272 241.007 397.642 241.013 410.981Z"/>
	<path fill="#8D99AE" d="M781.667 440.831Q791.977 451.237 802.398 461.531C822.197 481.104 832.861 495.527 832.759 524.721C832.584 574.672 794.37 630.069 759.937 663.936C747.557 676.113 734.077 689.224 719.531 698.789L719.36 698.157C716.251 698.553 707.486 707.083 703.671 708.94C696.883 712.243 674.019 728.227 668.361 727.564C664.506 724.64 656.49 724.96 650.783 721.369C648.608 720 646.304 716.814 643.856 716.763C641.768 715.766 639.881 711.244 638.453 709.257C637.541 709.444 636.848 709.622 635.914 709.439C634.701 709.2 633.763 707.26 633.195 706.248C631.583 703.372 630.094 699.925 628.014 697.358C626.781 695.837 625.015 694.565 623.959 692.936C620.464 687.546 626.812 680.728 627.857 675.75C627.925 675.427 627.979 675.101 628.04 674.776C641.691 668.034 656.436 660.916 668.527 651.566L668.377 650.788C677.934 643.194 687.659 636.419 696.633 628.042C745.111 582.786 772.503 524.167 780.02 458.581C780.695 452.691 781.28 446.747 781.667 440.831Z"/>
	<defs>
		<linearGradient id="gradient_5" gradientUnits="userSpaceOnUse" x1="552.43909" y1="288.56116" x2="813.3786" y2="238.7637">
			<stop offset="0" stop-color="#FF153A"/>
			<stop offset="1" stop-color="#FF1575"/>
		</linearGradient>
	</defs>
	<path fill="url(#gradient_5)" d="M608.448 114.234Q610.305 114.241 612.162 114.272C667.231 115.24 720.052 152.358 756.829 190.642C787.045 222.095 831.869 289.231 830.804 333.925C829.911 371.448 807.51 389 782.631 412.603C782.211 402.497 780.613 392.433 779.11 382.445C770.562 334.032 750.358 291.815 718.25 254.643Q716.369 252.477 714.443 250.352Q712.517 248.226 710.546 246.142Q708.575 244.058 706.56 242.016Q704.545 239.975 702.488 237.976Q700.43 235.977 698.331 234.023Q696.231 232.069 694.09 230.159Q691.95 228.25 689.769 226.386Q687.589 224.522 685.369 222.705Q683.149 220.888 680.892 219.119Q678.634 217.35 676.339 215.628Q674.044 213.907 671.714 212.235Q669.383 210.563 667.017 208.941Q664.652 207.319 662.252 205.747Q659.853 204.176 657.42 202.655Q654.988 201.135 652.524 199.666Q650.06 198.198 647.565 196.782Q645.07 195.366 642.546 194.004Q640.022 192.641 637.469 191.332Q634.917 190.024 632.337 188.769Q629.757 187.515 627.152 186.316Q624.546 185.117 621.915 183.973Q619.285 182.829 616.63 181.742Q613.976 180.654 611.299 179.623Q608.622 178.592 605.924 177.618Q603.226 176.644 600.508 175.728Q597.79 174.811 595.053 173.953Q592.316 173.094 589.562 172.294Q586.807 171.493 584.036 170.751Q581.266 170.01 578.479 169.327Q575.693 168.644 572.894 168.021Q570.094 167.397 567.281 166.833Q564.469 166.269 561.645 165.765C549.524 163.565 537.252 162.625 524.98 161.719C532.21 156.287 538.429 149.978 544.82 143.624C565.357 123.207 578.799 115.183 608.448 114.234Z"/>
	<defs>
		<linearGradient id="gradient_6" gradientUnits="userSpaceOnUse" x1="234.96965" y1="641.77441" x2="432.4765" y2="553.17059">
			<stop offset="0" stop-color="#4A3D41"/>
			<stop offset="1" stop-color="#EF233C"/>
		</linearGradient>
	</defs>
	<path fill="url(#gradient_6)" d="M239.564 445.929C240.817 446.676 241.588 457.243 241.805 458.954Q242.145 461.605 242.536 464.249Q242.927 466.893 243.367 469.529Q243.808 472.165 244.299 474.792Q244.79 477.419 245.33 480.036Q245.871 482.654 246.461 485.26Q247.052 487.867 247.691 490.462Q248.331 493.057 249.02 495.639Q249.708 498.221 250.446 500.79Q251.184 503.359 251.97 505.913Q252.757 508.467 253.592 511.006Q254.426 513.545 255.309 516.068Q256.192 518.59 257.123 521.096Q258.053 523.601 259.031 526.088Q260.009 528.576 261.034 531.044Q262.06 533.512 263.131 535.96Q264.203 538.409 265.321 540.836Q266.439 543.263 267.603 545.669Q268.767 548.075 269.977 550.458Q271.186 552.842 272.441 555.201Q273.695 557.561 274.995 559.897Q276.294 562.232 277.637 564.543Q278.98 566.853 280.367 569.138Q281.754 571.422 283.184 573.68Q284.614 575.938 286.087 578.168Q287.56 580.399 289.075 582.601Q290.589 584.802 292.146 586.975Q293.702 589.148 295.299 591.29Q296.897 593.433 298.534 595.545Q300.172 597.657 301.85 599.738Q303.527 601.818 305.244 603.867Q306.961 605.915 308.716 607.93Q310.472 609.945 312.265 611.927C345.897 648.47 393.344 677.358 441.703 689.124C461.091 693.842 480.044 695.693 499.933 696.512C485.842 712.195 469.674 730.713 450.226 739.516C435.208 745.674 417.436 745.314 401.612 743.015C385.949 740.74 370.807 735.32 356.209 729.379C317.289 713.539 294.759 697.959 266.056 667.42C256.458 657.209 247.295 647.074 238.94 635.805C213.706 601.771 188.119 554.934 194.84 511.339C198.158 489.818 210.698 473.034 225.862 458.149C230.19 453.9 234.664 449.512 239.564 445.929Z"/>
</svg>
